{"title":"Guess Whos Coming to Dinner 1967 720p BRRip x264 MP4 Multisubs A","uid":11825429,"size":2554943819,"categoryP":"video","categoryS":"hd___movies","magnet":"?xt=urn:btih:3eabf61a93590a1c2aecd4c434c3e52d5d3439c1&amp;dn=Guess+Whos+Coming+to+Dinner+1967+720p+BRRip+x264+MP4+Multisubs+A&amp;tr=udp%3A%2F%2Ftracker.openbittorrent.com%3A80&amp;tr=udp%3A%2F%2Fopen.demonii.com%3A1337&amp;tr=udp%3A%2F%2Ftracker.coppersurfer.tk%3A6969&amp;tr=udp%3A%2F%2Fexodus.desync.com%3A6969","seeders":3,"leechers":3,"uploader":"Caveman44","files":33,"time":1429472620,"description":" &lt;a href=&quot;\nhttp://www.imdb.com/title/tt0061735&quot; rel=&quot;nofollow&quot; target=&quot;_NEW&quot;&gt;\nhttp://www.imdb.com/title/tt0061735&lt;/a&gt;\n\nSource: Guess.Whos.Coming.to.Dinner.1967.720p.BluRay.X264-AMIABLE Thanks!\n\nSubs ( Vobsubs ) : Arabic, Czech, Danish, English, Finnish, French, German, Greek, Hebrew, Hindi, Hungarian, Italian, Japanese, Norwegian, Polish, Portuguese, Spanish, Swedish, Turkish.\n\nSubs ( Subrip ) : Brazilian, Danish, Dutch, English, French, Portuguese, Spanish.\n\nSample and Screens included.\n\nGeneral\nComplete name                            : Guess Whos Coming to Dinner 1967 720p BRRip x264 MP4 Multisubs AAC-CC.mp4\nFormat                                   : MPEG-4\nFormat profile                           : Base Media\nCodec ID                                 : isom\nFile size                                : 2.23 GiB\nDuration                                 : 1h 48mn\nOverall bit rate mode                    : Variable\nOverall bit rate                         : 2 947 Kbps\nEncoded date                             : UTC 2015-03-20 07:34:19\nTagged date                              : UTC 2015-03-20 07:34:19\nWriting application                      : Yamb 2.1.0.0 \n\nVideo\nID                                       : 1\nFormat                                   : AVC\nFormat/Info                              : Advanced Video Codec\nFormat profile                           : &lt;a class=&quot;__cf_email__&quot; href=&quot;/cdn-cgi/l/email-protection&quot; data-cfemail=&quot;db93b2bcb39b97eff5ea&quot;&gt;[email&amp;#160;protected]&lt;/a&gt;&lt;script cf-hash='f9e31' type=&quot;text/javascript&quot;&gt;\n/* &lt;![CDATA[ */!function(){try{var t=&quot;currentScript&quot;in document?document.currentScript:function(){for(var t=document.getElementsByTagName(&quot;script&quot;),e=t.length;e--;)if(t[e].getAttribute(&quot;cf-hash&quot;))return t[e]}();if(t&amp;&amp;t.previousSibling){var e,r,n,i,c=t.previousSibling,a=c.getAttribute(&quot;data-cfemail&quot;);if(a){for(e=&quot;&quot;,r=parseInt(a.substr(0,2),16),n=2;a.length-n;n+=2)i=parseInt(a.substr(n,2),16)^r,e+=String.fromCharCode(i);e=document.createTextNode(e),c.parentNode.replaceChild(e,c)}}}catch(u){}}();/* ]]&gt; */&lt;/script&gt;\nFormat settings, CABAC                   : Yes\nFormat settings, ReFrames                : 5 frames\nCodec ID                                 : avc1\nCodec ID/Info                            : Advanced Video Coding\nDuration                                 : 1h 48mn\nSource duration                          : 1h 48mn\nBit rate                                 : 2 559 Kbps\nMaximum bit rate                         : 23.4 Mbps\nWidth                                    : 1 280 pixels\nHeight                                   : 688 pixels\nDisplay aspect ratio                     : 1.85:1\nFrame rate mode                          : Variable\nFrame rate                               : 23.976 fps\nMinimum frame rate                       : 19.133 fps\nMaximum frame rate                       : 24.390 fps\nColor space                              : YUV\nChroma subsampling                       : 4:2:0\nBit depth                                : 8 bits\nScan type                                : Progressive\nBits/(Pixel*Frame)                       : 0.121\nStream size                              : 1.93 GiB (87%)\nWriting library                          : x264 core 112\nEncoding settings                        : cabac=1 / ref=5 / deblock=1:0:0 / analyse=0x3:0x113 / me=hex / subme=7 / psy=1 / psy_rd=1.00:0.00 / mixed_ref=1 / me_range=16 / chroma_me=1 / trellis=1 / 8x8dct=1 / cqm=0 / deadzone=21,11 / fast_pskip=1 / chroma_qp_offset=-2 / threads=3 / sliced_threads=0 / nr=0 / decimate=1 / interlaced=0 / constrained_intra=0 / bframes=5 / b_pyramid=2 / b_adapt=2 / b_bias=0 / direct=1 / weightb=1 / open_gop=0 / weightp=2 / keyint=240 / keyint_min=24 / scenecut=40 / intra_refresh=0 / rc_lookahead=50 / rc=abr / mbtree=1 / bitrate=2559 / ratetol=1.0 / qcomp=0.60 / qpmin=3 / qpmax=51 / qpstep=4 / ip_ratio=1.40 / aq=1:1.00\nEncoded date                             : UTC 2015-03-20 21:23:04\nTagged date                              : UTC 2015-03-20 07:39:08\nColor primaries                          : BT.709\nTransfer characteristics                 : BT.709\nMatrix coefficients                      : BT.709\n\nAudio\nID                                       : 2\nFormat                                   : AAC\nFormat/Info                              : Advanced Audio Codec\nFormat profile                           : LC\nCodec ID                                 : 40\nDuration                                 : 1h 48mn\nBit rate mode                            : Variable\nBit rate                                 : 384 Kbps\nMaximum bit rate                         : 537 Kbps\nChannel(s)                               : 6 channels\nChannel positions                        : Front: L C R, Side: L R, LFE\nSampling rate                            : 48.0 KHz\nCompression mode                         : Lossy\nDelay relative to video                  : 105ms\nStream size                              : 297 MiB (13%)\nLanguage                                 : English\nEncoded date                             : UTC 2015-03-20 07:37:37\nTagged date                              : UTC 2015-03-20 07:39:08\n\nEnjoy...\n\nRequested by majmi","torrent":{"xt":"urn:btih:3eabf61a93590a1c2aecd4c434c3e52d5d3439c1","amp;dn":"Guess+Whos+Coming+to+Dinner+1967+720p+BRRip+x264+MP4+Multisubs+A","amp;tr":["udp%3A%2F%2Ftracker.openbittorrent.com%3A80","udp%3A%2F%2Fopen.demonii.com%3A1337","udp%3A%2F%2Ftracker.coppersurfer.tk%3A6969","udp%3A%2F%2Fexodus.desync.com%3A6969"],"infoHash":"3eabf61a93590a1c2aecd4c434c3e52d5d3439c1","infoHashBuffer":{"type":"Buffer","data":[62,171,246,26,147,89,10,28,42,236,212,196,52,195,229,45,93,52,57,193]},"announce":[],"urlList":[]}}